<?xml version="1.0" encoding="iso-8859-1"?>
<!-- Generator: Adobe Illustrator 19.0.0, SVG Export Plug-In . SVG Version: 6.00 Build 0)  -->
<svg version="1.1" id="Capa_1" xmlns="http://www.w3.org/2000/svg" xmlns:xlink="http://www.w3.org/1999/xlink" x="0px" y="0px"
	 viewBox="0 0 423.936 423.936" style="enable-background:new 0 0 423.936 423.936;" xml:space="preserve">
<g>
	<g>
		<path d="M308.496,172.596c-7.842,0-14.2-6.358-14.2-14.2c0-7.842,6.358-14.2,14.2-14.2v0.08c4.418,0,8-3.582,8-8s-3.582-8-8-8
			h-176c-16.639,0.044-30.116,13.521-30.16,30.16v217.44c-0.002,11.797,9.559,21.362,21.356,21.364c0.135,0,0.269-0.001,0.404-0.004
			h171.12c11.734-0.044,21.236-9.546,21.28-21.28v-195.36C316.496,176.177,312.914,172.596,308.496,172.596z M132.736,144.196
			l-0.24,0.08h149.36c-0.972,1.834-1.75,3.764-2.32,5.76h-46.88c-4.418,0-8,3.582-8,8s3.582,8,8,8h46.64
			c0.597,2.278,1.456,4.48,2.56,6.56h-149.12c-7.842,0-14.2-6.358-14.2-14.2C118.536,150.553,124.894,144.196,132.736,144.196z
			 M300.496,375.876c0,2.916-2.364,5.28-5.28,5.28h-171.12c-2.916,0-5.28-2.364-5.28-5.28v-190.8c4.358,2.321,9.222,3.53,14.16,3.52
			l167.52,0.08V375.876z"/>
	</g>
</g>
<g>
	<g>
		<path d="M394.176,221.876v-9.12c2.109-100.626-77.755-183.909-178.382-186.018S31.885,104.493,29.776,205.119
			c-0.053,2.545-0.053,5.091,0,7.637v8.4c-20.346,4.37-33.298,24.406-28.928,44.752c3.113,14.494,14.435,25.815,28.928,28.928v1.92
			c0,8.837,7.163,16,16,16h30.32c8.837,0,16-7.163,16-16v-76c0-8.837-7.163-16-16-16h-29.92
			c4.499-91.569,82.377-162.153,173.946-157.654c85.274,4.19,153.464,72.38,157.654,157.654h-29.68c-8.837,0-16,7.163-16,16v76
			c0,8.837,7.163,16,16,16h30c8.837,0,16-7.163,16-16v-1.12c17.391-3.731,29.821-19.093,29.84-36.88
			C423.925,240.993,411.536,225.639,394.176,221.876z M29.776,262.756c-0.023,0.346-0.023,0.694,0,1.04v14.08
			c-8.104-3.315-13.432-11.165-13.52-19.92l-0.32,0.08c0.044-8.922,5.53-16.913,13.84-20.16V262.756z M76.096,220.756v76h-30.08v-76
			H76.096z M378.096,288.516v8l-30,0.24v-76h30V288.516z M406.346,266.746c-2.212,5.603-6.647,10.038-12.25,12.25v-40.48
			C405.274,242.928,410.759,255.567,406.346,266.746z"/>
	</g>
</g>
<g>
</g>
<g>
</g>
<g>
</g>
<g>
</g>
<g>
</g>
<g>
</g>
<g>
</g>
<g>
</g>
<g>
</g>
<g>
</g>
<g>
</g>
<g>
</g>
<g>
</g>
<g>
</g>
<g>
</g>
</svg>
